<?xml version="1.0" encoding="utf-8" standalone="no"?>
<!DOCTYPE svg PUBLIC "-//W3C//DTD SVG 1.1//EN"
  "http://www.w3.org/Graphics/SVG/1.1/DTD/svg11.dtd">
<!-- Created with matplotlib (https://matplotlib.org/) -->
<svg height="165.826772pt" version="1.1" viewBox="0 0 228.614173 165.826772" width="228.614173pt" xmlns="http://www.w3.org/2000/svg" xmlns:xlink="http://www.w3.org/1999/xlink">
 <defs>
  <style type="text/css">
*{stroke-linecap:butt;stroke-linejoin:round;}
  </style>
 </defs>
 <g id="figure_1">
  <g id="patch_1">
   <path d="M 0 165.826772 
L 228.614173 165.826772 
L 228.614173 0 
L 0 0 
z
" style="fill:#ffffff;"/>
  </g>
  <g id="axes_1">
   <g id="patch_2">
    <path clip-path="url(#pfaa47f02ff)" d="M 100.461497 69.083929 
L 94.791949 64.602286 
L 95.871863 63.684359 
L 81.486391 46.760275 
L 81.486391 46.760275 
L 95.871863 63.684359 
L 96.951777 62.766432 
z
" style="fill:#4169e1;stroke:#4169e1;stroke-linejoin:miter;"/>
   </g>
   <g id="patch_3">
    <path clip-path="url(#pfaa47f02ff)" d="M 90.353193 121.064889 
L 92.783881 114.258961 
L 93.999226 114.988167 
L 103.439276 99.25475 
L 103.439276 99.25475 
L 93.999226 114.988167 
L 95.21457 115.717374 
z
" style="fill:#4169e1;stroke:#4169e1;stroke-linejoin:miter;"/>
   </g>
   <g id="patch_4">
    <path clip-path="url(#pfaa47f02ff)" d="M 89.470268 80.286529 
L 82.254438 80.687408 
L 82.454878 79.28433 
L 60.688887 76.174903 
L 60.688887 76.174903 
L 82.454878 79.28433 
L 82.655318 77.881252 
z
" style="fill:#4169e1;stroke:#4169e1;stroke-linejoin:miter;"/>
   </g>
   <g id="patch_5">
    <path clip-path="url(#pfaa47f02ff)" d="M 66.057401 121.196338 
L 60.947171 116.086107 
L 62.126455 115.299918 
L 45.392171 90.198492 
L 45.392171 90.198492 
L 62.126455 115.299918 
L 63.305738 114.513729 
z
" style="fill:#4169e1;stroke:#4169e1;stroke-linejoin:miter;"/>
   </g>
   <g id="patch_6">
    <path clip-path="url(#pfaa47f02ff)" d="M 78.80315 160.15748 
C 91.432664 160.15748 103.546607 158.066747 112.477022 154.345741 
C 121.407438 150.624734 126.425197 145.577258 126.425197 140.314961 
C 126.425197 135.052663 121.407438 130.005187 112.477022 126.28418 
C 103.546607 122.563174 91.432664 120.472441 78.80315 120.472441 
C 66.173635 120.472441 54.059692 122.563174 45.129277 126.28418 
C 36.198862 130.005187 31.181102 135.052663 31.181102 140.314961 
C 31.181102 145.577258 36.198862 150.624734 45.129277 154.345741 
C 54.059692 158.066747 66.173635 160.15748 78.80315 160.15748 
z
" style="fill:none;stroke:#4169e1;stroke-linejoin:miter;"/>
   </g>
   <g id="patch_7">
    <path clip-path="url(#pfaa47f02ff)" d="M 33.448819 92.125984 
C 40.816036 92.125984 47.882502 90.035251 53.091911 86.314245 
C 58.30132 82.593238 61.228346 77.545762 61.228346 72.283465 
C 61.228346 67.021167 58.30132 61.973691 53.091911 58.252684 
C 47.882502 54.531678 40.816036 52.440945 33.448819 52.440945 
C 26.081602 52.440945 19.015136 54.531678 13.805727 58.252684 
C 8.596318 61.973691 5.669291 67.021167 5.669291 72.283465 
C 5.669291 77.545762 8.596318 82.593238 13.805727 86.314245 
C 19.015136 90.035251 26.081602 92.125984 33.448819 92.125984 
z
" style="fill:#deecfc;stroke:#4169e1;stroke-linejoin:miter;"/>
   </g>
   <g id="patch_8">
    <path clip-path="url(#pfaa47f02ff)" d="M 192.188976 94.251969 
C 200.345538 94.251969 208.169126 91.937228 213.936686 87.817543 
C 219.704246 83.697857 222.944882 78.10958 222.944882 72.283465 
C 222.944882 66.457349 219.704246 60.869072 213.936686 56.749386 
C 208.169126 52.629701 200.345538 50.314961 192.188976 50.314961 
C 184.032415 50.314961 176.208827 52.629701 170.441267 56.749386 
C 164.673707 60.869072 161.433071 66.457349 161.433071 72.283465 
C 161.433071 78.10958 164.673707 83.697857 170.441267 87.817543 
C 176.208827 91.937228 184.032415 94.251969 192.188976 94.251969 
z
" style="fill:#ffffff;stroke:#ffffff;stroke-linejoin:miter;"/>
   </g>
   <g id="patch_9">
    <path clip-path="url(#pfaa47f02ff)" d="M 112.818898 100.629921 
C 119.133655 100.629921 125.190626 98.837864 129.655834 95.64843 
C 134.121042 92.458996 136.629921 88.132588 136.629921 83.622047 
C 136.629921 79.111506 134.121042 74.785098 129.655834 71.595664 
C 125.190626 68.40623 119.133655 66.614173 112.818898 66.614173 
C 106.50414 66.614173 100.447169 68.40623 95.981961 71.595664 
C 91.516754 74.785098 89.007874 79.111506 89.007874 83.622047 
C 89.007874 88.132588 91.516754 92.458996 95.981961 95.64843 
C 100.447169 98.837864 106.50414 100.629921 112.818898 100.629921 
z
" style="fill:none;stroke:#4169e1;stroke-linejoin:miter;"/>
   </g>
   <g id="patch_10">
    <path clip-path="url(#pfaa47f02ff)" d="M 64.629921 48.188976 
C 77.033909 48.188976 88.931531 45.948905 97.702475 41.962113 
C 106.473418 37.97532 111.401575 32.56731 111.401575 26.929134 
C 111.401575 21.290958 106.473418 15.882948 97.702475 11.896155 
C 88.931531 7.909362 77.033909 5.669291 64.629921 5.669291 
C 52.225934 5.669291 40.328312 7.909362 31.557368 11.896155 
C 22.786424 15.882948 17.858268 21.290958 17.858268 26.929134 
C 17.858268 32.56731 22.786424 37.97532 31.557368 41.962113 
C 40.328312 45.948905 52.225934 48.188976 64.629921 48.188976 
z
" style="fill:#deecfc;stroke:#4169e1;stroke-linejoin:miter;"/>
   </g>
   <g id="patch_11">
    <path clip-path="url(#pfaa47f02ff)" d="M 161.007874 48.188976 
C 173.411862 48.188976 185.309484 45.948905 194.080427 41.962113 
C 202.851371 37.97532 207.779528 32.56731 207.779528 26.929134 
C 207.779528 21.290958 202.851371 15.882948 194.080427 11.896155 
C 185.309484 7.909362 173.411862 5.669291 161.007874 5.669291 
C 148.603887 5.669291 136.706264 7.909362 127.935321 11.896155 
C 119.164377 15.882948 114.23622 21.290958 114.23622 26.929134 
C 114.23622 32.56731 119.164377 37.97532 127.935321 41.962113 
C 136.706264 45.948905 148.603887 48.188976 161.007874 48.188976 
z
" style="fill:#ffffff;stroke:#ffffff;stroke-linejoin:miter;"/>
   </g>
   <g id="matplotlib.axis_1"/>
   <g id="matplotlib.axis_2"/>
   <g id="text_1">
    <!-- ~\\$~~~~~~~~~\mbox{\huge\(d\)}$\\Demonstration -->
    <defs>
     <path d="M 50.296875 66.484375 
C 50.40625 66.890625 50.59375 67.484375 50.59375 67.984375 
C 50.59375 69 49.59375 69 49.40625 69 
C 49.296875 69 44.40625 68.59375 43.90625 68.484375 
C 42.203125 68.390625 40.703125 68.1875 38.90625 68.09375 
C 36.40625 67.890625 35.703125 67.796875 35.703125 65.984375 
C 35.703125 64.984375 36.5 64.984375 37.90625 64.984375 
C 42.796875 64.984375 42.90625 64.109375 42.90625 63.125 
C 42.90625 62.53125 42.703125 61.734375 42.59375 61.4375 
L 36.5 37.40625 
C 35.40625 40 32.703125 44 27.5 44 
C 16.203125 44 4 29.421875 4 14.65625 
C 4 4.78125 9.796875 -1 16.59375 -1 
C 22.09375 -1 26.796875 3.28125 29.59375 6.578125 
C 30.59375 0.6875 35.296875 -1 38.296875 -1 
C 41.296875 -1 43.703125 0.796875 45.5 4.390625 
C 47.09375 7.78125 48.5 13.859375 48.5 14.265625 
C 48.5 14.765625 48.09375 15.15625 47.5 15.15625 
C 46.59375 15.15625 46.5 14.65625 46.09375 13.15625 
C 44.59375 7.28125 42.703125 1 38.59375 1 
C 35.703125 1 35.5 3.59375 35.5 5.578125 
C 35.5 5.984375 35.5 8.078125 36.203125 10.875 
z
M 30.09375 11.859375 
C 29.59375 10.171875 29.59375 9.96875 28.203125 8.078125 
C 26 5.28125 21.59375 1 16.90625 1 
C 12.796875 1 10.5 4.6875 10.5 10.5625 
C 10.5 16.0625 13.59375 27.234375 15.5 31.421875 
C 18.90625 38.40625 23.59375 41.984375 27.5 41.984375 
C 34.09375 41.984375 35.40625 33.8125 35.40625 33.015625 
C 35.40625 32.921875 35.09375 31.625 35 31.421875 
z
" id="CMMI12-100"/>
     <path d="M 5.203125 68 
L 5.203125 65.390625 
C 12.09375 65.390625 13.203125 65.390625 13.203125 60.90625 
L 13.203125 7.078125 
C 13.203125 2.59375 12.09375 2.59375 5.203125 2.59375 
L 5.203125 0 
L 37 0 
C 53.09375 0 66 14.734375 66 33.4375 
C 66 52.25 53.296875 68 37 68 
z
M 23.796875 2.59375 
C 19.796875 2.59375 19.59375 3.09375 19.59375 6.46875 
L 19.59375 61.5 
C 19.59375 64.890625 19.796875 65.390625 23.796875 65.390625 
L 35 65.390625 
C 43.296875 65.390625 58.59375 60.515625 58.59375 33.4375 
C 58.59375 19.40625 54.5 13.734375 52.59375 11.046875 
C 50.203125 7.96875 44.5 2.59375 35 2.59375 
z
" id="CMR17-68"/>
     <path d="M 38.09375 23.484375 
C 38.5 23.890625 38.5 24.09375 38.5 25.09375 
C 38.5 35.171875 33.09375 44 21.703125 44 
C 11.09375 44 2.703125 33.984375 2.703125 21.78125 
C 2.703125 8.65625 12.203125 -1 22.796875 -1 
C 34 -1 38.40625 9.671875 38.40625 11.796875 
C 38.40625 12.5 37.796875 12.5 37.59375 12.5 
C 36.90625 12.5 36.796875 12.296875 36.40625 11.078125 
C 34.203125 4.21875 28.703125 0.796875 23.5 0.796875 
C 19.203125 0.796875 14.90625 3.21875 12.203125 7.65625 
C 9.09375 12.796875 9.09375 18.75 9.09375 23.484375 
z
M 9.203125 25 
C 9.90625 39.234375 17.59375 42.390625 21.59375 42.390625 
C 28.40625 42.390625 33 36.0625 33.09375 25 
z
" id="CMR17-101"/>
     <path d="M 67.59375 30.53125 
C 67.59375 35.5625 66.703125 44 54.796875 44 
C 48 44 43.296875 39.375 41.5 33.953125 
L 41.40625 33.953125 
C 40.203125 42.1875 34.296875 44 28.703125 44 
C 20.796875 44 16.703125 37.875 15.203125 33.84375 
L 15.09375 33.84375 
L 15.09375 44 
L 3.296875 42.890625 
L 3.296875 40.28125 
C 9.203125 40.28125 10.09375 39.6875 10.09375 34.859375 
L 10.09375 6.921875 
C 10.09375 3.09375 9.703125 2.59375 3.296875 2.59375 
L 3.296875 0 
C 5.703125 0.1875 10.09375 0.1875 12.703125 0.1875 
C 15.296875 0.1875 19.796875 0.1875 22.203125 0 
L 22.203125 2.59375 
C 15.796875 2.59375 15.40625 3 15.40625 6.921875 
L 15.40625 26.21875 
C 15.40625 35.453125 21 42.390625 28 42.390625 
C 35.40625 42.390625 36.203125 35.765625 36.203125 30.9375 
L 36.203125 6.921875 
C 36.203125 3.09375 35.796875 2.59375 29.40625 2.59375 
L 29.40625 0 
C 31.796875 0.1875 36.203125 0.1875 38.796875 0.1875 
C 41.40625 0.1875 45.90625 0.1875 48.296875 0 
L 48.296875 2.59375 
C 41.90625 2.59375 41.5 3 41.5 6.921875 
L 41.5 26.21875 
C 41.5 35.453125 47.09375 42.390625 54.09375 42.390625 
C 61.5 42.390625 62.296875 35.765625 62.296875 30.9375 
L 62.296875 6.921875 
C 62.296875 3.09375 61.90625 2.59375 55.5 2.59375 
L 55.5 0 
C 57.90625 0.1875 62.296875 0.1875 64.90625 0.1875 
C 67.5 0.1875 72 0.1875 74.40625 0 
L 74.40625 2.59375 
C 68 2.59375 67.59375 3 67.59375 6.921875 
z
" id="CMR17-109"/>
     <path d="M 43.09375 21.1875 
C 43.09375 34 33.796875 44 22.90625 44 
C 12 44 2.703125 34 2.703125 21.1875 
C 2.703125 8.59375 12 -1 22.90625 -1 
C 33.796875 -1 43.09375 8.59375 43.09375 21.1875 
z
M 22.90625 0.796875 
C 18.203125 0.796875 14.203125 3.59375 11.90625 7.5 
C 9.40625 12 9.09375 17.59375 9.09375 22 
C 9.09375 26.1875 9.296875 31.390625 11.90625 35.890625 
C 13.90625 39.1875 17.796875 42.390625 22.90625 42.390625 
C 27.40625 42.390625 31.203125 39.890625 33.59375 36.390625 
C 36.703125 31.6875 36.703125 25.09375 36.703125 22 
C 36.703125 18.09375 36.5 12.09375 33.796875 7.296875 
C 31 2.6875 26.703125 0.796875 22.90625 0.796875 
z
" id="CMR17-111"/>
     <path d="M 41.5 30.53125 
C 41.5 35.65625 40.5 44 28.703125 44 
C 20.796875 44 16.703125 37.875 15.203125 33.84375 
L 15.09375 33.84375 
L 15.09375 44 
L 3.296875 42.890625 
L 3.296875 40.28125 
C 9.203125 40.28125 10.09375 39.6875 10.09375 34.859375 
L 10.09375 6.921875 
C 10.09375 3.09375 9.703125 2.59375 3.296875 2.59375 
L 3.296875 0 
C 5.703125 0.1875 10.09375 0.1875 12.703125 0.1875 
C 15.296875 0.1875 19.796875 0.1875 22.203125 0 
L 22.203125 2.59375 
C 15.796875 2.59375 15.40625 3 15.40625 6.921875 
L 15.40625 26.21875 
C 15.40625 35.453125 21 42.390625 28 42.390625 
C 35.40625 42.390625 36.203125 35.765625 36.203125 30.9375 
L 36.203125 6.921875 
C 36.203125 3.09375 35.796875 2.59375 29.40625 2.59375 
L 29.40625 0 
C 31.796875 0.1875 36.203125 0.1875 38.796875 0.1875 
C 41.40625 0.1875 45.90625 0.1875 48.296875 0 
L 48.296875 2.59375 
C 41.90625 2.59375 41.5 3 41.5 6.921875 
z
" id="CMR17-110"/>
     <path d="M 30.90625 42 
C 30.90625 43.796875 30.796875 43.890625 30.203125 43.890625 
C 29.796875 43.890625 29.703125 43.796875 28.5 42.296875 
C 28.203125 41.890625 27.296875 40.890625 27 40.5 
C 23.796875 43.890625 19.296875 44 17.59375 44 
C 6.5 44 2.5 38.1875 2.5 32.390625 
C 2.5 23.390625 12.703125 21.296875 15.59375 20.6875 
C 21.90625 19.390625 24.09375 19 26.203125 17.1875 
C 27.5 16 29.703125 13.796875 29.703125 10.1875 
C 29.703125 6 27.296875 0.59375 18.09375 0.59375 
C 9.40625 0.59375 6.296875 7.1875 4.5 16 
C 4.203125 17.390625 4.203125 17.5 3.40625 17.5 
C 2.59375 17.5 2.5 17.390625 2.5 15.390625 
L 2.5 1 
C 2.5 -0.8125 2.59375 -0.90625 3.203125 -0.90625 
C 3.703125 -0.90625 3.796875 -0.8125 4.296875 0 
C 4.90625 0.890625 6.40625 3.296875 7 4.296875 
C 9 1.59375 12.5 -1 18.09375 -1 
C 28 -1 33.296875 4.390625 33.296875 12.1875 
C 33.296875 17.296875 30.59375 20 29.296875 21.1875 
C 26.296875 24.296875 22.796875 25 18.59375 25.796875 
C 13.09375 27 6.09375 28.390625 6.09375 34.5 
C 6.09375 37.09375 7.5 42.59375 17.59375 42.59375 
C 28.296875 42.59375 28.90625 32.59375 29.09375 29.390625 
C 29.203125 28.890625 29.703125 28.796875 30 28.796875 
C 30.90625 28.796875 30.90625 29.09375 30.90625 30.796875 
z
" id="CMR17-115"/>
     <path d="M 15.09375 40.390625 
L 29.09375 40.390625 
L 29.09375 43 
L 15.09375 43 
L 15.09375 62 
L 13.296875 62 
C 13.09375 51.4375 9.59375 42.1875 1.09375 41.984375 
L 1.09375 40.390625 
L 9.796875 40.390625 
L 9.796875 12.15625 
C 9.796875 10.234375 9.796875 -1 21.40625 -1 
C 27.296875 -1 30.703125 4.8125 30.703125 12.25 
L 30.703125 17.984375 
L 28.90625 17.984375 
L 28.90625 12.34375 
C 28.90625 5.421875 26.203125 0.796875 22 0.796875 
C 19.09375 0.796875 15.09375 2.796875 15.09375 11.953125 
z
" id="CMR17-116"/>
     <path d="M 15 23.703125 
C 15 33.34375 19.09375 42.390625 26.59375 42.390625 
C 27.296875 42.390625 28 42.296875 28.703125 41.984375 
C 28.703125 41.984375 26.5 41.28125 26.5 38.671875 
C 26.5 36.265625 28.40625 35.265625 29.90625 35.265625 
C 31.09375 35.265625 33.296875 35.96875 33.296875 38.78125 
C 33.296875 41.984375 30.09375 44 26.703125 44 
C 19.09375 44 15.796875 36.5625 14.796875 33.046875 
L 14.703125 33.046875 
L 14.703125 44 
L 3.09375 42.890625 
L 3.09375 40.28125 
C 9 40.28125 9.90625 39.6875 9.90625 34.859375 
L 9.90625 6.921875 
C 9.90625 3.09375 9.5 2.59375 3.09375 2.59375 
L 3.09375 0 
C 5.5 0.1875 10.09375 0.1875 12.703125 0.1875 
C 15.59375 0.1875 20.703125 0.1875 23.40625 0 
L 23.40625 2.59375 
C 16.203125 2.59375 15 2.59375 15 7.109375 
z
" id="CMR17-114"/>
     <path d="M 36 25.875 
C 36 32 36 35.546875 31.796875 39.59375 
C 28.09375 42.984375 23.796875 44 20.40625 44 
C 12.5 44 6.796875 37.625 6.796875 30.890625 
C 6.796875 27.1875 9.796875 27 10.40625 27 
C 11.703125 27 14 27.796875 14 30.59375 
C 14 33.09375 12.09375 34.1875 10.40625 34.1875 
C 10 34.1875 9.5 34.09375 9.203125 34 
C 11.296875 40.53125 16.703125 42.390625 20.203125 42.390625 
C 25.203125 42.390625 30.703125 37.828125 30.703125 29.296875 
L 30.703125 25.5 
C 24.796875 25.296875 17.703125 24.5 12.09375 21.453125 
C 5.796875 17.921875 4 12.84375 4 9 
C 4 1.203125 13 -1 18.296875 -1 
C 23.796875 -1 28.90625 2.109375 31.09375 7.890625 
C 31.296875 3.421875 34.09375 -0.609375 38.5 -0.609375 
C 40.59375 -0.609375 45.90625 0.796875 45.90625 8.796875 
L 45.90625 14.46875 
L 44.09375 14.46875 
L 44.09375 8.703125 
C 44.09375 2.515625 41.40625 1.703125 40.09375 1.703125 
C 36 1.703125 36 6.96875 36 11.4375 
z
M 30.703125 13.859375 
C 30.703125 5.046875 24.5 0.59375 19 0.59375 
C 14 0.59375 10.09375 4.34375 10.09375 9 
C 10.09375 12.046875 11.40625 17.40625 17.203125 20.65625 
C 22 23.390625 27.5 23.796875 30.703125 24 
z
" id="CMR17-97"/>
     <path d="M 15.5 61.890625 
C 15.5 64.09375 13.703125 66 11.40625 66 
C 9.203125 66 7.296875 64.1875 7.296875 61.890625 
C 7.296875 59.6875 9.09375 57.796875 11.40625 57.796875 
C 13.59375 57.796875 15.5 59.59375 15.5 61.890625 
z
M 3.796875 42.890625 
L 3.796875 40.296875 
C 9.40625 40.296875 10.203125 39.6875 10.203125 34.859375 
L 10.203125 6.921875 
C 10.203125 3.09375 9.796875 2.59375 3.40625 2.59375 
L 3.40625 0 
C 5.796875 0.1875 10.09375 0.1875 12.59375 0.1875 
C 15 0.1875 19.09375 0.1875 21.40625 0 
L 21.40625 2.59375 
C 15.5 2.59375 15.296875 3.203125 15.296875 6.8125 
L 15.296875 44 
z
" id="CMR17-105"/>
    </defs>
    <g style="fill:#4169e1;" transform="translate(46.452168 151.52984)scale(0.1 -0.1)">
     <use transform="translate(240.607731 69.060238)scale(0.206625)" xlink:href="#CMMI12-100"/>
     <use transform="scale(0.996264)" xlink:href="#CMR17-68"/>
     <use transform="translate(70.393556 0)scale(0.996264)" xlink:href="#CMR17-101"/>
     <use transform="translate(110.879216 0)scale(0.996264)" xlink:href="#CMR17-109"/>
     <use transform="translate(187.798806 0)scale(0.996264)" xlink:href="#CMR17-111"/>
     <use transform="translate(233.489283 0)scale(0.996264)" xlink:href="#CMR17-110"/>
     <use transform="translate(284.384653 0)scale(0.996264)" xlink:href="#CMR17-115"/>
     <use transform="translate(320.185991 0)scale(0.996264)" xlink:href="#CMR17-116"/>
     <use transform="translate(355.466759 0)scale(0.996264)" xlink:href="#CMR17-114"/>
     <use transform="translate(390.747526 0)scale(0.996264)" xlink:href="#CMR17-97"/>
     <use transform="translate(436.438003 0)scale(0.996264)" xlink:href="#CMR17-116"/>
     <use transform="translate(471.718771 0)scale(0.996264)" xlink:href="#CMR17-105"/>
     <use transform="translate(496.58983 0)scale(0.996264)" xlink:href="#CMR17-111"/>
     <use transform="translate(542.280307 0)scale(0.996264)" xlink:href="#CMR17-110"/>
    </g>
   </g>
   <g id="text_2">
    <!-- ~\\$~~\,\mbox{\huge\(w\)}$\\World -->
    <defs>
     <path d="M 34.40625 6.078125 
C 36.59375 0.09375 42.796875 -1 46.59375 -1 
C 54.203125 -1 58.703125 5.578125 61.5 12.46875 
C 63.796875 18.25 67.5 31.421875 67.5 37.3125 
C 67.5 43.390625 64.40625 44 63.5 44 
C 61.09375 44 58.90625 41.59375 58.90625 39.59375 
C 58.90625 38.40625 59.59375 37.703125 60.09375 37.3125 
C 61 36.40625 63.59375 33.71875 63.59375 28.53125 
C 63.59375 25.140625 60.796875 15.75 58.703125 11.0625 
C 55.90625 4.984375 52.203125 1 47 1 
C 41.40625 1 39.59375 5.1875 39.59375 9.765625 
C 39.59375 12.65625 40.5 16.15625 40.90625 17.84375 
L 45.09375 34.609375 
C 45.59375 36.609375 46.5 40.09375 46.5 40.484375 
C 46.5 41.984375 45.296875 43 43.796875 43 
C 40.90625 43 40.203125 40.484375 39.59375 38.09375 
C 38.59375 34.203125 34.40625 17.34375 34 15.15625 
C 33.59375 13.453125 33.59375 12.359375 33.59375 10.171875 
C 33.59375 7.78125 30.40625 3.984375 30.296875 3.78125 
C 29.203125 2.6875 27.59375 1 24.5 1 
C 16.59375 1 16.59375 8.46875 16.59375 10.171875 
C 16.59375 13.359375 17.296875 17.75 21.796875 29.625 
C 23 32.71875 23.5 34.015625 23.5 36.015625 
C 23.5 40.203125 20.5 44 15.59375 44 
C 6.40625 44 2.703125 29.53125 2.703125 28.71875 
C 2.703125 28.328125 3.09375 27.828125 3.796875 27.828125 
C 4.703125 27.828125 4.796875 28.234375 5.203125 29.625 
C 7.703125 38.40625 11.59375 41.984375 15.296875 41.984375 
C 16.296875 41.984375 17.90625 41.890625 17.90625 38.703125 
C 17.90625 38.203125 17.90625 36.109375 16.203125 31.71875 
C 11.5 19.25 10.5 15.15625 10.5 11.375 
C 10.5 0.890625 19.09375 -1 24.203125 -1 
C 25.90625 -1 30.40625 -1 34.40625 6.078125 
z
" id="CMMI12-119"/>
     <path d="M 86.296875 58.984375 
C 87.203125 61.6875 88.703125 65.203125 94.5 65.390625 
L 94.5 68 
C 92.796875 67.890625 89.296875 67.796875 87.5 67.796875 
C 85 67.796875 80.59375 67.796875 78.203125 68 
L 78.203125 65.390625 
C 82.703125 65.296875 84.59375 62.796875 84.59375 60.390625 
C 84.59375 59.6875 84.5 59.28125 84.09375 58.1875 
L 68.59375 8.703125 
L 52.296875 60.78125 
C 52 61.796875 51.90625 62.1875 51.90625 62.59375 
C 51.90625 65.390625 56.296875 65.390625 58.203125 65.390625 
L 58.203125 68 
C 55.296875 67.796875 50.296875 67.796875 47.203125 67.796875 
C 44.703125 67.796875 40.203125 67.796875 37.90625 68 
L 37.90625 65.390625 
C 42.5 65.390625 43.703125 65.09375 44.703125 63.296875 
C 45.09375 62.390625 46.703125 57.1875 46.703125 56.875 
C 46.703125 56.484375 46.5 55.875 46.40625 55.578125 
L 31.703125 8.8125 
L 15.40625 60.78125 
C 14.90625 62.1875 14.90625 62.390625 14.90625 62.59375 
C 14.90625 65.390625 19.296875 65.390625 21.296875 65.390625 
L 21.296875 68 
C 18.40625 67.796875 13.40625 67.796875 10.296875 67.796875 
C 7.703125 67.796875 3.296875 67.796875 0.90625 68 
L 0.90625 65.390625 
C 6.90625 65.390625 7.296875 64.796875 8.296875 61.59375 
L 27.796875 -0.3125 
C 28.296875 -1.8125 28.296875 -2 29.203125 -2 
C 30 -2 30.296875 -1.8125 30.703125 -0.40625 
L 47.703125 53.875 
L 64.703125 -0.40625 
C 65.09375 -1.8125 65.40625 -2 66.203125 -2 
C 67.09375 -2 67.09375 -1.8125 67.59375 -0.3125 
z
" id="CMR17-87"/>
     <path d="M 15.296875 69 
L 3.40625 67.890625 
L 3.40625 65.296875 
C 9.296875 65.296875 10.203125 64.703125 10.203125 59.921875 
L 10.203125 6.859375 
C 10.203125 3.09375 9.796875 2.59375 3.40625 2.59375 
L 3.40625 0 
C 5.796875 0.1875 10.203125 0.1875 12.703125 0.1875 
C 15.296875 0.1875 19.703125 0.1875 22.09375 0 
L 22.09375 2.59375 
C 15.703125 2.59375 15.296875 2.984375 15.296875 6.859375 
z
" id="CMR17-108"/>
     <path d="M 29.203125 67.890625 
L 29.203125 65.296875 
C 35.09375 65.296875 36 64.703125 36 60.046875 
L 36 37.046875 
C 35.59375 37.546875 31.5 44 23.40625 44 
C 13.203125 44 3.296875 34.8125 3.296875 21.5 
C 3.296875 8.265625 12.59375 -1 22.40625 -1 
C 30.90625 -1 35.296875 5.640625 35.796875 6.34375 
L 35.796875 -1 
L 47.90625 -0.203125 
L 47.90625 2.40625 
C 42 2.40625 41.09375 3.015625 41.09375 7.859375 
L 41.09375 69 
z
M 35.796875 11.90625 
C 35.796875 8.875 34 6.140625 31.703125 4.125 
C 28.296875 1.09375 24.90625 0.59375 23 0.59375 
C 20.09375 0.59375 9.703125 2.109375 9.703125 21.390625 
C 9.703125 41.1875 21.296875 42.390625 23.90625 42.390625 
C 28.5 42.390625 32.203125 39.765625 34.5 36.140625 
C 35.796875 34.015625 35.796875 33.703125 35.796875 31.890625 
z
" id="CMR17-100"/>
    </defs>
    <g style="fill:#4169e1;" transform="translate(20.151432 80.772056)scale(0.1 -0.1)">
     <use transform="translate(46.680372 70.181278)scale(0.206625)" xlink:href="#CMMI12-119"/>
     <use transform="scale(0.996264)" xlink:href="#CMR17-87"/>
     <use transform="translate(87.289395 0)scale(0.996264)" xlink:href="#CMR17-111"/>
     <use transform="translate(132.979872 0)scale(0.996264)" xlink:href="#CMR17-114"/>
     <use transform="translate(168.260639 0)scale(0.996264)" xlink:href="#CMR17-108"/>
     <use transform="translate(193.131698 0)scale(0.996264)" xlink:href="#CMR17-100"/>
    </g>
   </g>
   <g id="text_3">
    <!-- ~\\$~~~~\mbox{\Large\(\mathcal{O}_L\)}$\\Observer\\$~~~$Model -->
    <defs>
     <path d="M 77.703125 48.609375 
C 77.703125 61.375 72.09375 71 59.90625 71 
C 49.5 71 40.703125 62.578125 40 61.96875 
C 32 54.03125 29 44.984375 29 44.796875 
C 29 44.1875 29.5 44.09375 30 44.09375 
C 31.90625 44.09375 33.5 45.09375 35 46.203125 
C 36.796875 47.5 36.90625 47.796875 38 50.109375 
C 38.90625 52.125 41.203125 57.046875 44.90625 61.265625 
C 47.296875 63.984375 49.296875 65.484375 53.296875 65.484375 
C 63 65.484375 69.203125 57.453125 69.203125 44.28125 
C 69.203125 23.796875 54.703125 3.5 36.203125 3.5 
C 22 3.5 14.203125 14.84375 14.203125 29.21875 
C 14.203125 42.875 21.203125 57.953125 35.796875 66.59375 
C 36.796875 67.1875 39.796875 68.984375 39.796875 70.296875 
C 39.796875 71 39 71 38.796875 71 
C 35.296875 71 5.703125 55.03125 5.703125 24.890625 
C 5.703125 10.828125 13 -2 29.59375 -2 
C 49.09375 -2 77.703125 17.65625 77.703125 48.609375 
z
" id="CMSY10-79"/>
     <path d="M 37.40625 60.21875 
C 38.296875 63.796875 38.59375 64.890625 48 64.890625 
C 51 64.890625 51.796875 64.890625 51.796875 66.796875 
C 51.796875 68 50.703125 68 50.203125 68 
C 46.90625 68 38.703125 67.6875 35.40625 67.6875 
C 32.40625 67.6875 25.09375 68 22.09375 68 
C 21.40625 68 20.203125 68 20.203125 65.984375 
C 20.203125 64.890625 21.09375 64.890625 23 64.890625 
C 23.203125 64.890625 25.09375 64.890625 26.796875 64.6875 
C 28.59375 64.5 29.5 64.390625 29.5 63.109375 
C 29.5 62.703125 29.40625 62.40625 29.09375 61.203125 
L 15.703125 7.765625 
C 14.703125 3.890625 14.5 3.09375 6.59375 3.09375 
C 4.90625 3.09375 3.90625 3.09375 3.90625 1.09375 
C 3.90625 0 4.796875 0 6.59375 0 
L 52.90625 0 
C 55.296875 0 55.40625 0 56 1.6875 
L 63.90625 23.1875 
C 64.296875 24.296875 64.296875 24.484375 64.296875 24.59375 
C 64.296875 24.984375 64 25.6875 63.09375 25.6875 
C 62.203125 25.6875 62.09375 25.1875 61.40625 23.59375 
C 58 14.4375 53.59375 3.09375 36.296875 3.09375 
L 26.90625 3.09375 
C 25.5 3.09375 25.296875 3.09375 24.703125 3.1875 
C 23.703125 3.296875 23.40625 3.390625 23.40625 4.1875 
C 23.40625 4.484375 23.40625 4.6875 23.90625 6.46875 
z
" id="CMMI10-76"/>
     <path d="M 67.296875 33.84375 
C 67.296875 54.5 52.59375 70 36 70 
C 19 70 4.59375 54.296875 4.59375 33.84375 
C 4.59375 13.390625 19.203125 -2 35.90625 -2 
C 53 -2 67.296875 13.6875 67.296875 33.84375 
z
M 36 -0.203125 
C 24.59375 -0.203125 12.203125 11.28125 12.203125 35.15625 
C 12.203125 58.921875 25.796875 68.1875 35.90625 68.1875 
C 46.5 68.1875 59.703125 58.625 59.703125 35.15625 
C 59.703125 10.875 47 -0.203125 36 -0.203125 
z
" id="CMR17-79"/>
     <path d="M 15 69 
L 3.09375 67.890625 
L 3.09375 65.296875 
C 9 65.296875 9.90625 64.703125 9.90625 60.046875 
L 9.90625 -0.203125 
L 11.703125 -0.203125 
L 14.59375 6.953125 
C 17.5 2.203125 21.796875 -1 27.59375 -1 
C 37.59375 -1 47.703125 7.859375 47.703125 21.59375 
C 47.703125 34.515625 38.703125 44 28.59375 44 
C 22.40625 44 18 40.671875 15 36.734375 
z
M 15.203125 31.59375 
C 15.203125 33.40625 15.203125 33.703125 16.59375 35.828125 
C 20.5 41.890625 26.09375 42.390625 28 42.390625 
C 31 42.390625 41.296875 40.78125 41.296875 21.6875 
C 41.296875 1.703125 29.5 0.59375 27.09375 0.59375 
C 24 0.59375 19.5 1.796875 16.296875 7.65625 
C 15.203125 9.578125 15.203125 9.78125 15.203125 11.59375 
z
" id="CMR17-98"/>
     <path d="M 39.09375 33.953125 
C 40 36.171875 41.59375 40.1875 47.40625 40.390625 
L 47.40625 43 
C 45.5 42.890625 43 42.796875 41.09375 42.796875 
C 39 42.796875 35.703125 42.796875 33.703125 43 
L 33.703125 40.390625 
C 36.203125 40.1875 37.59375 38.984375 37.59375 36.375 
C 37.59375 35.46875 37.59375 35.265625 37 33.859375 
L 26 5.921875 
L 14.09375 36.0625 
C 13.5 37.375 13.5 37.578125 13.5 37.984375 
C 13.5 40.390625 16.796875 40.390625 18.296875 40.390625 
L 18.296875 43 
C 15.90625 42.796875 11.5 42.796875 9 42.796875 
C 6.296875 42.796875 3.203125 42.796875 1 43 
L 1 40.390625 
C 4.796875 40.390625 6.90625 40.390625 8.09375 37.28125 
L 22.59375 0.6875 
C 23.203125 -0.8125 23.296875 -1 24.203125 -1 
C 25.09375 -1 25.203125 -0.8125 25.796875 0.6875 
z
" id="CMR17-118"/>
     <path d="M 20.90625 66.390625 
C 20.296875 67.890625 20.203125 68 18.09375 68 
L 5.296875 68 
L 5.296875 65.390625 
C 12.203125 65.390625 13.296875 65.390625 13.296875 60.90625 
L 13.296875 9.75 
C 13.296875 7.265625 13.296875 2.59375 5.296875 2.59375 
L 5.296875 0 
C 7.59375 0.1875 11.796875 0.1875 14.296875 0.1875 
C 16.796875 0.1875 21 0.1875 23.296875 0 
L 23.296875 2.59375 
C 15.296875 2.59375 15.296875 7.265625 15.296875 9.75 
L 15.296875 64.984375 
L 15.40625 64.984375 
L 38.90625 1.59375 
C 39.296875 0.59375 39.5 0 40.296875 0 
C 41.09375 0 41.296875 0.59375 41.703125 1.59375 
L 65.40625 65.484375 
L 65.5 65.484375 
L 65.5 7.078125 
C 65.5 2.59375 64.40625 2.59375 57.5 2.59375 
L 57.5 0 
C 60.203125 0.1875 65.59375 0.1875 68.5 0.1875 
C 71.40625 0.1875 76.90625 0.1875 79.59375 0 
L 79.59375 2.59375 
C 72.703125 2.59375 71.59375 2.59375 71.59375 7.078125 
L 71.59375 60.90625 
C 71.59375 65.390625 72.703125 65.390625 79.59375 65.390625 
L 79.59375 68 
L 66.90625 68 
C 64.796875 68 64.703125 67.890625 64.09375 66.390625 
L 42.5 8.0625 
z
" id="CMR17-77"/>
    </defs>
    <g style="fill:#ffffff;" transform="translate(172.761798 87.203064)scale(0.1 -0.1)">
     <use transform="translate(90.227899 142.514475)scale(0.143462)" xlink:href="#CMSY10-79"/>
     <use transform="translate(101.649105 140.362556)scale(0.099626)" xlink:href="#CMMI10-76"/>
     <use transform="translate(0 70.181278)scale(0.996264)" xlink:href="#CMR17-79"/>
     <use transform="translate(71.714788 70.181278)scale(0.996264)" xlink:href="#CMR17-98"/>
     <use transform="translate(122.610158 70.181278)scale(0.996264)" xlink:href="#CMR17-115"/>
     <use transform="translate(158.411496 70.181278)scale(0.996264)" xlink:href="#CMR17-101"/>
     <use transform="translate(198.897156 70.181278)scale(0.996264)" xlink:href="#CMR17-114"/>
     <use transform="translate(234.177924 70.181278)scale(0.996264)" xlink:href="#CMR17-118"/>
     <use transform="translate(279.868386 70.181278)scale(0.996264)" xlink:href="#CMR17-101"/>
     <use transform="translate(320.354046 70.181278)scale(0.996264)" xlink:href="#CMR17-114"/>
     <use transform="translate(60.151933 0)scale(0.996264)" xlink:href="#CMR17-77"/>
     <use transform="translate(144.838873 0)scale(0.996264)" xlink:href="#CMR17-111"/>
     <use transform="translate(193.131789 0)scale(0.996264)" xlink:href="#CMR17-100"/>
     <use transform="translate(244.027159 0)scale(0.996264)" xlink:href="#CMR17-101"/>
     <use transform="translate(284.512819 0)scale(0.996264)" xlink:href="#CMR17-108"/>
    </g>
   </g>
   <g id="text_4">
    <!-- ~\\$\,~~\mbox{\huge\(\pi\)}$\\Plan -->
    <defs>
     <path d="M 25.90625 37.59375 
L 37.203125 37.59375 
C 34.5 26.421875 32.796875 19.140625 32.796875 11.171875 
C 32.796875 9.765625 32.796875 -1 36.90625 -1 
C 39 -1 40.796875 0.890625 40.796875 2.59375 
C 40.796875 3.09375 40.796875 3.28125 40.09375 4.78125 
C 37.40625 11.65625 37.40625 20.234375 37.40625 20.9375 
C 37.40625 21.53125 37.40625 28.625 39.5 37.59375 
L 50.703125 37.59375 
C 52 37.59375 55.296875 37.59375 55.296875 40.796875 
C 55.296875 43 53.40625 43 51.59375 43 
L 18.703125 43 
C 16.40625 43 13 43 8.40625 38.09375 
C 5.796875 35.203125 2.59375 29.921875 2.59375 29.3125 
C 2.59375 28.71875 3.09375 28.515625 3.703125 28.515625 
C 4.40625 28.515625 4.5 28.8125 5 29.421875 
C 10.203125 37.59375 15.40625 37.59375 17.90625 37.59375 
L 23.59375 37.59375 
C 21.40625 30.109375 18.90625 21.4375 10.703125 3.984375 
C 9.90625 2.390625 9.90625 2.1875 9.90625 1.59375 
C 9.90625 -0.5 11.703125 -1 12.59375 -1 
C 15.5 -1 16.296875 1.59375 17.5 5.78125 
C 19.09375 10.859375 19.09375 11.0625 20.09375 15.0625 
z
" id="CMMI12-25"/>
     <path d="M 19.796875 32 
L 35.796875 32 
C 48.703125 32 58.09375 40.359375 58.09375 49.796875 
C 58.09375 59.234375 48.90625 68 35.796875 68 
L 5.203125 68 
L 5.203125 65.390625 
C 12.09375 65.390625 13.203125 65.390625 13.203125 60.921875 
L 13.203125 7.078125 
C 13.203125 2.59375 12.09375 2.59375 5.203125 2.59375 
L 5.203125 0 
C 8.09375 0.1875 13.40625 0.1875 16.5 0.1875 
C 19.59375 0.1875 24.90625 0.1875 27.796875 0 
L 27.796875 2.59375 
C 20.90625 2.59375 19.796875 2.59375 19.796875 7.078125 
z
M 19.59375 34.09375 
L 19.59375 61.515625 
C 19.59375 64.890625 19.796875 65.390625 23.796875 65.390625 
L 33.90625 65.390625 
C 46.796875 65.390625 50.5 58.046875 50.5 49.796875 
C 50.5 40.75 46.09375 34.09375 33.90625 34.09375 
z
" id="CMR17-80"/>
    </defs>
    <g style="fill:#4169e1;" transform="translate(102.787044 92.110639)scale(0.1 -0.1)">
     <use transform="translate(30.075966 70.181278)scale(0.206625)" xlink:href="#CMMI12-25"/>
     <use transform="scale(0.996264)" xlink:href="#CMR17-80"/>
     <use transform="translate(62.586301 0)scale(0.996264)" xlink:href="#CMR17-108"/>
     <use transform="translate(87.457359 0)scale(0.996264)" xlink:href="#CMR17-97"/>
     <use transform="translate(133.147836 0)scale(0.996264)" xlink:href="#CMR17-110"/>
    </g>
   </g>
   <g id="text_5">
    <!-- ~\\$~~~~~~~~~\mbox{\huge\(g_o\)}$\\Object-directed\\$~~~~~~~$Goal -->
    <defs>
     <path d="M 33.796875 12.671875 
C 33.40625 11.0625 33.203125 10.671875 31.90625 9.171875 
C 27.796875 3.890625 23.59375 2 20.5 2 
C 17.203125 2 14.09375 4.578125 14.09375 11.46875 
C 14.09375 16.75 17.09375 27.921875 19.296875 32.421875 
C 22.203125 38 26.703125 41.984375 30.90625 41.984375 
C 37.5 41.984375 38.796875 33.8125 38.796875 33.21875 
L 38.5 31.8125 
z
M 40 37.40625 
C 38.703125 40.296875 35.90625 44 30.90625 44 
C 20 44 7.59375 30.328125 7.59375 15.453125 
C 7.59375 5.078125 13.90625 0 20.296875 0 
C 25.59375 0 30.296875 4.1875 32.09375 6.1875 
L 29.90625 -2.75 
C 28.5 -8.125 27.90625 -10.578125 24.296875 -14 
C 20.203125 -18 16.40625 -18 14.203125 -18 
C 11.203125 -18 8.703125 -17.8125 6.203125 -17.03125 
C 9.40625 -16.15625 10.203125 -13.40625 10.203125 -12.328125 
C 10.203125 -10.765625 9 -9.203125 6.796875 -9.203125 
C 4.40625 -9.203125 1.796875 -11.15625 1.796875 -14.390625 
C 1.796875 -18.40625 5.90625 -20 14.40625 -20 
C 27.296875 -20 34 -11.84375 35.296875 -6.5625 
L 46.40625 37.90625 
C 46.703125 39.09375 46.703125 39.296875 46.703125 39.5 
C 46.703125 40.890625 45.59375 42 44.09375 42 
C 41.703125 42 40.296875 40 40 37.3125 
z
" id="CMMI12-103"/>
     <path d="M 45.59375 27.421875 
C 45.59375 36.90625 39.40625 44 30.296875 44 
C 17.09375 44 4.09375 29.625 4.09375 15.5625 
C 4.09375 6.078125 10.296875 -1 19.40625 -1 
C 32.703125 -1 45.59375 13.359375 45.59375 27.421875 
z
M 19.5 1 
C 14.5 1 10.796875 4.984375 10.796875 11.96875 
C 10.796875 16.5625 13.203125 26.734375 16 31.71875 
C 20.5 39.40625 26.09375 41.984375 30.203125 41.984375 
C 35.09375 41.984375 38.90625 38 38.90625 31.015625 
C 38.90625 27.03125 36.796875 16.359375 33 10.265625 
C 28.90625 3.59375 23.40625 1 19.5 1 
z
" id="CMMI12-111"/>
     <path d="M 18.203125 61.890625 
C 18.203125 64.09375 16.40625 66 14.09375 66 
C 11.90625 66 10 64.1875 10 61.890625 
C 10 59.6875 11.796875 57.796875 14.09375 57.796875 
C 16.296875 57.796875 18.203125 59.59375 18.203125 61.890625 
z
M 5.703125 42.890625 
L 5.703125 40.296875 
C 12.296875 40.296875 13.09375 39.578125 13.09375 34.703125 
L 13.09375 -6.40625 
C 13.09375 -11.484375 12.203125 -19.40625 6.296875 -19.40625 
C 5.59375 -19.40625 2.90625 -19.3125 0.703125 -17.890625 
C 1.40625 -17.78125 3.90625 -17.078125 3.90625 -14.234375 
C 3.90625 -12.296875 2.59375 -10.578125 0.296875 -10.578125 
C -1.90625 -10.578125 -3.296875 -12.09375 -3.296875 -14.328125 
C -3.296875 -18.390625 1.09375 -21 6.203125 -21 
C 13.09375 -21 18.203125 -14.640625 18.203125 -6 
L 18.203125 44 
z
" id="CMR17-106"/>
     <path d="M 34.90625 35 
C 33 35 30.203125 35 30.203125 31.484375 
C 30.203125 28.6875 32.5 27.890625 33.796875 27.890625 
C 34.5 27.890625 37.40625 28.1875 37.40625 31.6875 
C 37.40625 38.6875 30.59375 44 22.90625 44 
C 12.296875 44 3.296875 34.390625 3.296875 21.546875 
C 3.296875 8.140625 12.703125 -1 22.90625 -1 
C 35.296875 -1 38.40625 10.5625 38.40625 11.671875 
C 38.40625 12.078125 38.296875 12.375 37.59375 12.375 
C 36.90625 12.375 36.796875 12.28125 36.40625 10.96875 
C 33.796875 2.8125 28.09375 0.796875 23.796875 0.796875 
C 17.40625 0.796875 9.703125 6.734375 9.703125 21.640625 
C 9.703125 36.84375 17.09375 42.1875 23 42.1875 
C 26.90625 42.1875 32.703125 40.34375 34.90625 35 
z
" id="CMR17-99"/>
     <path d="M 25.5 19.59375 
L 25.5 24 
L 0.40625 24 
L 0.40625 19.59375 
z
" id="CMR17-45"/>
     <path d="M 62.09375 19.65625 
C 62.09375 23.484375 62.40625 24 68.59375 24 
L 68.59375 26.59375 
C 66.203125 26.390625 60.796875 26.390625 58.09375 26.390625 
C 55.296875 26.390625 47.5 26.5 43.703125 26.59375 
L 43.703125 24 
L 46.703125 24 
C 55.296875 24 55.5 22.875 55.5 19.25 
L 55.5 12.59375 
C 55.5 1.5 42.5 0.59375 39.40625 0.59375 
C 29.09375 0.59375 12.203125 7.75 12.203125 34.046875 
C 12.203125 60.34375 28.796875 67.390625 38.5 67.390625 
C 49.796875 67.390625 58 57.515625 59.90625 43.515625 
C 60.09375 42.3125 60.09375 42.109375 61 42.109375 
C 62.09375 42.109375 62.09375 42.3125 62.09375 44.125 
L 62.09375 67.984375 
C 62.09375 69.796875 62 69.890625 61.40625 69.890625 
C 61 69.890625 60.90625 69.796875 60.203125 68.59375 
L 55.796875 60.140625 
C 50.90625 66.390625 44.90625 70 37.203125 70 
C 20.09375 70 4.59375 54.796875 4.59375 34.046875 
C 4.59375 13.40625 19.796875 -2 37.40625 -2 
C 45.5 -2 53.40625 0.890625 56.5 6.640625 
C 58.203125 2.515625 61 -0.3125 61.5 -0.3125 
C 62 -0.3125 62.09375 -0.203125 62.09375 1.59375 
z
" id="CMR17-71"/>
    </defs>
    <g style="fill:#4169e1;" transform="translate(30.715383 41.39531)scale(0.1 -0.1)">
     <use transform="translate(240.607731 163.758434)scale(0.206625)" xlink:href="#CMMI12-103"/>
     <use transform="translate(250.295568 160.659064)scale(0.143462)" xlink:href="#CMMI12-111"/>
     <use transform="translate(0 89.559461)scale(0.996264)" xlink:href="#CMR17-79"/>
     <use transform="translate(71.714788 89.559461)scale(0.996264)" xlink:href="#CMR17-98"/>
     <use transform="translate(127.81496 89.559461)scale(0.996264)" xlink:href="#CMR17-106"/>
     <use transform="translate(155.288472 89.559461)scale(0.996264)" xlink:href="#CMR17-101"/>
     <use transform="translate(195.774133 89.559461)scale(0.996264)" xlink:href="#CMR17-99"/>
     <use transform="translate(236.259793 89.559461)scale(0.996264)" xlink:href="#CMR17-116"/>
     <use transform="translate(271.540561 89.559461)scale(0.996264)" xlink:href="#CMR17-45"/>
     <use transform="translate(301.616527 89.559461)scale(0.996264)" xlink:href="#CMR17-100"/>
     <use transform="translate(352.511897 89.559461)scale(0.996264)" xlink:href="#CMR17-105"/>
     <use transform="translate(377.382955 89.559461)scale(0.996264)" xlink:href="#CMR17-114"/>
     <use transform="translate(412.663723 89.559461)scale(0.996264)" xlink:href="#CMR17-101"/>
     <use transform="translate(453.149384 89.559461)scale(0.996264)" xlink:href="#CMR17-99"/>
     <use transform="translate(493.635044 89.559461)scale(0.996264)" xlink:href="#CMR17-116"/>
     <use transform="translate(528.915812 89.559461)scale(0.996264)" xlink:href="#CMR17-101"/>
     <use transform="translate(569.401472 89.559461)scale(0.996264)" xlink:href="#CMR17-100"/>
     <use transform="translate(180.455798 0)scale(0.996264)" xlink:href="#CMR17-71"/>
     <use transform="translate(252.811144 0)scale(0.996264)" xlink:href="#CMR17-111"/>
     <use transform="translate(298.501621 0)scale(0.996264)" xlink:href="#CMR17-97"/>
     <use transform="translate(344.192098 0)scale(0.996264)" xlink:href="#CMR17-108"/>
    </g>
   </g>
   <g id="text_6">
    <!-- ~\\$~~~~~~~~~\mbox{\huge\(g_b\)}$\\Belief-directed\\$~~~~~~~$Goal -->
    <defs>
     <path d="M 23.09375 66.484375 
C 23.203125 66.890625 23.40625 67.484375 23.40625 67.984375 
C 23.40625 69 22.40625 69 22.203125 69 
C 22.09375 69 18.5 68.6875 16.703125 68.484375 
C 15 68.390625 13.5 68.1875 11.703125 68.09375 
C 9.296875 67.890625 8.59375 67.796875 8.59375 65.984375 
C 8.59375 64.984375 9.59375 64.984375 10.59375 64.984375 
C 15.703125 64.984375 15.703125 64.109375 15.703125 63.125 
C 15.703125 62.421875 14.90625 59.5625 14.5 57.796875 
L 12.09375 48.328125 
C 11.09375 44.390625 5.40625 21.75 5 19.953125 
C 4.5 17.453125 4.5 15.75 4.5 14.453125 
C 4.5 4.28125 10.203125 -1 16.703125 -1 
C 28.296875 -1 40.296875 13.859375 40.296875 28.328125 
C 40.296875 37.5 35.09375 44 27.59375 44 
C 22.40625 44 17.703125 39.703125 15.796875 37.703125 
z
M 16.796875 1 
C 13.59375 1 10.09375 3.390625 10.09375 11.171875 
C 10.09375 14.453125 10.40625 16.359375 12.203125 23.34375 
C 12.5 24.640625 14.09375 31.015625 14.5 32.3125 
C 14.703125 33.109375 20.59375 41.984375 27.40625 41.984375 
C 31.796875 41.984375 33.796875 37.609375 33.796875 32.421875 
C 33.796875 27.625 31 16.359375 28.5 11.171875 
C 26 5.78125 21.40625 1 16.796875 1 
z
" id="CMMI12-98"/>
     <path d="M 5.203125 68 
L 5.203125 65.390625 
C 12.09375 65.390625 13.203125 65.390625 13.203125 60.890625 
L 13.203125 7.046875 
C 13.203125 2.59375 12.09375 2.59375 5.203125 2.59375 
L 5.203125 0 
L 39.59375 0 
C 52.40625 0 60.703125 9.03125 60.703125 18.046875 
C 60.703125 26.96875 52.5 34.59375 41.796875 35.296875 
C 51.40625 37.1875 58.09375 43.59375 58.09375 51.1875 
C 58.09375 59.5 49.90625 68 37 68 
z
M 19.5 36 
L 19.5 61.5 
C 19.5 64.890625 19.703125 65.390625 23.703125 65.390625 
L 36.5 65.390625 
C 46.40625 65.390625 50.796875 57.390625 50.796875 51.1875 
C 50.796875 43.59375 44.703125 36 33.90625 36 
z
M 23.703125 2.59375 
C 19.703125 2.59375 19.5 3.09375 19.5 6.453125 
L 19.5 34.390625 
L 38 34.390625 
C 48.296875 34.390625 53.296875 25.375 53.296875 18.140625 
C 53.296875 10.90625 47.59375 2.59375 36.703125 2.59375 
z
" id="CMR17-66"/>
     <path d="M 15.296875 40.390625 
L 26.703125 40.390625 
L 26.703125 43 
L 15.09375 43 
L 15.09375 55.296875 
C 15.09375 63.6875 19.296875 68.390625 23.59375 68.390625 
C 24.90625 68.390625 26.40625 68.171875 27.40625 67.796875 
C 26.59375 67.59375 24.5 66.890625 24.5 64.390625 
C 24.5 61.796875 26.5 61 27.90625 61 
C 29.296875 61 31.296875 61.796875 31.296875 64.390625 
C 31.296875 68.015625 27.703125 70 23.703125 70 
C 18 70 10.203125 65.796875 10.203125 55.09375 
L 10.203125 43 
L 2.203125 43 
L 2.203125 40.390625 
L 10.203125 40.390625 
L 10.203125 6.890625 
C 10.203125 3.09375 9.796875 2.59375 3.40625 2.59375 
L 3.40625 0 
C 5.796875 0.1875 10.40625 0.1875 13 0.1875 
C 15.90625 0.1875 21 0.1875 23.703125 0 
L 23.703125 2.59375 
C 16.5 2.59375 15.296875 2.59375 15.296875 7.09375 
z
" id="CMR17-102"/>
    </defs>
    <g style="fill:#ffffff;" transform="translate(129.653179 41.39531)scale(0.1 -0.1)">
     <use transform="translate(240.607731 144.380251)scale(0.206625)" xlink:href="#CMMI12-103"/>
     <use transform="translate(250.295568 141.280881)scale(0.143462)" xlink:href="#CMMI12-98"/>
     <use transform="translate(0 70.181278)scale(0.996264)" xlink:href="#CMR17-66"/>
     <use transform="translate(65.188754 70.181278)scale(0.996264)" xlink:href="#CMR17-101"/>
     <use transform="translate(105.674415 70.181278)scale(0.996264)" xlink:href="#CMR17-108"/>
     <use transform="translate(130.545473 70.181278)scale(0.996264)" xlink:href="#CMR17-105"/>
     <use transform="translate(155.416532 70.181278)scale(0.996264)" xlink:href="#CMR17-101"/>
     <use transform="translate(195.902192 70.181278)scale(0.996264)" xlink:href="#CMR17-102"/>
     <use transform="translate(223.375705 70.181278)scale(0.996264)" xlink:href="#CMR17-45"/>
     <use transform="translate(253.451671 70.181278)scale(0.996264)" xlink:href="#CMR17-100"/>
     <use transform="translate(304.347041 70.181278)scale(0.996264)" xlink:href="#CMR17-105"/>
     <use transform="translate(329.218099 70.181278)scale(0.996264)" xlink:href="#CMR17-114"/>
     <use transform="translate(364.498867 70.181278)scale(0.996264)" xlink:href="#CMR17-101"/>
     <use transform="translate(404.984528 70.181278)scale(0.996264)" xlink:href="#CMR17-99"/>
     <use transform="translate(445.470188 70.181278)scale(0.996264)" xlink:href="#CMR17-116"/>
     <use transform="translate(480.750956 70.181278)scale(0.996264)" xlink:href="#CMR17-101"/>
     <use transform="translate(521.236616 70.181278)scale(0.996264)" xlink:href="#CMR17-100"/>
     <use transform="translate(180.455798 0)scale(0.996264)" xlink:href="#CMR17-71"/>
     <use transform="translate(252.811144 0)scale(0.996264)" xlink:href="#CMR17-111"/>
     <use transform="translate(298.501621 0)scale(0.996264)" xlink:href="#CMR17-97"/>
     <use transform="translate(344.192098 0)scale(0.996264)" xlink:href="#CMR17-108"/>
    </g>
   </g>
  </g>
 </g>
 <defs>
  <clipPath id="pfaa47f02ff">
   <rect height="165.826772" width="228.614173" x="0" y="0"/>
  </clipPath>
 </defs>
</svg>
